<svg xmlns="http://www.w3.org/2000/svg" viewBox="0 0 1440 320" data-v-6a444349="">
    <path fill-opacity="0.5"
        d="M0,192L60,208C120,224,240,256,360,261.3C480,267,600,245,720,202.7C840,160,960,96,1080,106.7C1200,117,1320,203,1380,245.3L1440,288L1440,320L1380,320C1320,320,1200,320,1080,320C960,320,840,320,720,320C600,320,480,320,360,320C240,320,120,320,60,320L0,320Z"
        class="shape-fill" data-v-6a444349=""></path>
    <path fill-opacity="1"
        d="M0,224L80,229.3C160,235,320,245,480,224C640,203,800,149,960,133.3C1120,117,1280,139,1360,149.3L1440,160L1440,320L1360,320C1280,320,1120,320,960,320C800,320,640,320,480,320C320,320,160,320,80,320L0,320Z"
        class="shape-fill" data-v-6a444349=""></path>
</svg>